<svg xmlns="http://www.w3.org/2000/svg" xmlns:svg="http://www.w3.org/2000/svg" id="svg6798" width="68.267" height="68.267" version="1.1" viewBox="0 0 64 64"><metadata id="metadata6803"/><g id="layer1" transform="translate(-449.19461,-584.91011)"><path id="Fill-53-Copy" d="m 468.7141,630.10567 c -6.45166,-6.46832 -11.38528,-14.4586 -15.55988,-22.82937 -4.1746,-7.60979 -1.89755,-14.83909 5.69263,-19.40497 2.65657,-1.52195 4.93363,-1.52195 6.83117,0.76099 0.75902,1.14147 4.55412,5.32685 5.31313,6.8488 3.03608,3.8049 3.03608,6.08784 -2.27705,11.0342 -2.27706,2.28294 -1.51804,4.94637 0,6.46833 l 16.3189,16.36104 c 1.51803,1.52196 4.55411,2.28294 6.45166,0 5.31313,-5.32685 7.59017,-5.32685 11.00576,-2.28294 1.13853,0.76098 5.31314,4.56588 6.83116,5.32686 2.27706,1.90244 2.65658,4.18538 0.75903,6.84881 -4.55411,7.60979 -11.38528,9.89273 -19.35497,5.70735 -7.59019,-3.42442 -15.55988,-7.99028 -22.01154,-14.8391 l 0,0 z" class="st4" style="fill:none;stroke:#fff;stroke-width:6;stroke-opacity:1;stroke-miterlimit:4;stroke-dasharray:none"/></g></svg>