<svg xmlns="http://www.w3.org/2000/svg" xmlns:osb="http://www.openswatchbook.org/uri/2009/osb" xmlns:svg="http://www.w3.org/2000/svg" id="svg6948" width="76" height="52" version="1.1" viewBox="0 0 76 52"><defs id="defs6950"><linearGradient id="linearGradient9750" osb:paint="solid"><stop style="stop-color:#f1680d;stop-opacity:1" id="stop9752" offset="0"/></linearGradient><linearGradient id="linearGradient9634" osb:paint="solid"><stop id="stop9746" offset="0" style="stop-color:red;stop-opacity:1"/></linearGradient><linearGradient id="linearGradient9734" osb:paint="gradient"><stop style="stop-color:red;stop-opacity:1" id="stop9736" offset="0"/><stop style="stop-color:red;stop-opacity:0" id="stop9738" offset="1"/></linearGradient><linearGradient id="linearGradient9648" osb:paint="solid"><stop style="stop-color:#000;stop-opacity:1" id="stop9650" offset="0"/></linearGradient><linearGradient id="linearGradient9642"><stop style="stop-color:red;stop-opacity:1" id="stop9644" offset="0"/></linearGradient><linearGradient id="linearGradient9748"><stop style="stop-color:red;stop-opacity:1" id="stop9636" offset="0"/></linearGradient><linearGradient id="linearGradient8192" osb:paint="solid"><stop style="stop-color:red;stop-opacity:1" id="stop8194" offset="0"/></linearGradient><filter style="color-interpolation-filters:sRGB" id="filter4568" width="1.012" height="1.012" x="-.006" y="-.006"><feGaussianBlur id="feGaussianBlur4570" stdDeviation=".146"/></filter></defs><metadata id="metadata6953"/><g id="layer1" transform="translate(-337,-506.3622)"><path id="Fill-2-Copy_2_" d="m 391,536.3622 20,16 0,-40 -20,16 0,8 z m -52,-20 c 0,-4.4 3.6,-8 8,-8 l 32,0 c 4.4,0 8,3.6 8,8 l 0,32 c 0,4.4 -3.6,8 -8,8 l -32,0 c -4.4,0 -8,-3.6 -8,-8 l 0,-32 z" class="st6" style="fill:none;fill-opacity:1;stroke:#fff;stroke-width:4;stroke-miterlimit:4;stroke-dasharray:none;stroke-opacity:1"/><rect style="opacity:1;fill:red;fill-opacity:1;stroke:#000;stroke-width:2.01295313;stroke-linecap:round;stroke-miterlimit:4;stroke-dasharray:none;stroke-opacity:1;filter:url(#filter4568)" id="rect4369" width="77.313" height="6.758" x="11.879" y="652.399" rx="2.592" ry="2.327" transform="matrix(0.70195774,-0.7122186,0.49869699,0.86677639,0,0)"/></g></svg>