<svg xmlns="http://www.w3.org/2000/svg" xmlns:osb="http://www.openswatchbook.org/uri/2009/osb" xmlns:svg="http://www.w3.org/2000/svg" id="svg2" width="99.132" height="99.216" version="1.1" viewBox="0 0 92.936 93.015"><defs id="defs4"><marker id="Arrow2Send" orient="auto" refX="0" refY="0" style="overflow:visible"><path id="path4175" d="M 8.7185878,4.0337352 -2.2072895,0.01601326 8.7185884,-4.0017078 c -1.7454984,2.3720609 -1.7354408,5.6174519 -6e-7,8.035443 z" transform="matrix(-0.3,0,0,-0.3,0.69,0)" style="fill:#fff;fill-opacity:1;fill-rule:evenodd;stroke:#fff;stroke-width:.625;stroke-linejoin:round;stroke-opacity:1"/></marker><marker id="marker7801" orient="auto" refX="0" refY="0" style="overflow:visible"><path id="path7803" d="M 0,0 5,-5 -12.5,0 5,5 0,0 Z" transform="matrix(-0.2,0,0,-0.2,-1.2,0)" style="fill:#fff;fill-opacity:1;fill-rule:evenodd;stroke:#fff;stroke-width:1pt;stroke-opacity:1"/></marker><marker id="Arrow2Sstart" orient="auto" refX="0" refY="0" style="overflow:visible"><path id="path4172" d="M 8.7185878,4.0337352 -2.2072895,0.01601326 8.7185884,-4.0017078 c -1.7454984,2.3720609 -1.7354408,5.6174519 -6e-7,8.035443 z" transform="matrix(0.3,0,0,0.3,-0.69,0)" style="fill:#fff;fill-opacity:1;fill-rule:evenodd;stroke:#fff;stroke-width:.625;stroke-linejoin:round;stroke-opacity:1"/></marker><marker id="Arrow1Send" orient="auto" refX="0" refY="0" style="overflow:visible"><path id="path4157" d="M 0,0 5,-5 -12.5,0 5,5 0,0 Z" transform="matrix(-0.2,0,0,-0.2,-1.2,0)" style="fill:#fff;fill-opacity:1;fill-rule:evenodd;stroke:#fff;stroke-width:1pt;stroke-opacity:1"/></marker><marker id="Arrow1Sstart" orient="auto" refX="0" refY="0" style="overflow:visible"><path id="path4154" d="M 0,0 5,-5 -12.5,0 5,5 0,0 Z" transform="matrix(0.2,0,0,0.2,1.2,0)" style="fill:#fff;fill-opacity:1;fill-rule:evenodd;stroke:#fff;stroke-width:1pt;stroke-opacity:1"/></marker><linearGradient id="linearGradient6915" osb:paint="solid"><stop id="stop6971" offset="0" style="stop-color:#000;stop-opacity:1"/></linearGradient><linearGradient id="linearGradient6973"><stop style="stop-color:#000;stop-opacity:1" id="stop6917" offset="0"/></linearGradient><marker id="marker4691" orient="auto" refX="0" refY="0" style="overflow:visible"><path id="path4693" d="M 8.7185878,4.0337352 -2.2072895,0.01601326 8.7185884,-4.0017078 c -1.7454984,2.3720609 -1.7354408,5.6174519 -6e-7,8.035443 z" transform="scale(0.6,0.6)" style="fill:#fff;fill-opacity:1;fill-rule:evenodd;stroke:#fff;stroke-width:.625;stroke-linejoin:round;stroke-opacity:1"/></marker><marker id="marker4645" orient="auto" refX="0" refY="0" style="overflow:visible"><path id="path4647" d="M 8.7185878,4.0337352 -2.2072895,0.01601326 8.7185884,-4.0017078 c -1.7454984,2.3720609 -1.7354408,5.6174519 -6e-7,8.035443 z" transform="scale(0.6,0.6)" style="fill:#000;fill-opacity:1;fill-rule:evenodd;stroke:#000;stroke-width:.625;stroke-linejoin:round;stroke-opacity:1"/></marker><marker id="Arrow2Mend" orient="auto" refX="0" refY="0" style="overflow:visible"><path id="path4169" d="M 8.7185878,4.0337352 -2.2072895,0.01601326 8.7185884,-4.0017078 c -1.7454984,2.3720609 -1.7354408,5.6174519 -6e-7,8.035443 z" transform="scale(-0.6,-0.6)" style="fill:#fff;fill-opacity:1;fill-rule:evenodd;stroke:#fff;stroke-width:.625;stroke-linejoin:round;stroke-opacity:1"/></marker><marker id="Arrow2Lstart" orient="auto" refX="0" refY="0" style="overflow:visible"><path id="path4160" d="M 8.7185878,4.0337352 -2.2072895,0.01601326 8.7185884,-4.0017078 c -1.7454984,2.3720609 -1.7354408,5.6174519 -6e-7,8.035443 z" transform="matrix(1.1,0,0,1.1,1.1,0)" style="fill:#000;fill-opacity:1;fill-rule:evenodd;stroke:#000;stroke-width:.625;stroke-linejoin:round;stroke-opacity:1"/></marker><marker id="Arrow2Mstart" orient="auto" refX="0" refY="0" style="overflow:visible"><path id="path4166" d="M 8.7185878,4.0337352 -2.2072895,0.01601326 8.7185884,-4.0017078 c -1.7454984,2.3720609 -1.7354408,5.6174519 -6e-7,8.035443 z" transform="scale(0.6,0.6)" style="fill:#000;fill-opacity:1;fill-rule:evenodd;stroke:#000;stroke-width:.625;stroke-linejoin:round;stroke-opacity:1"/></marker></defs><metadata id="metadata7"/><g id="layer1" transform="translate(-567.64889,-251.27284)"><path style="fill:#fff;fill-opacity:1;fill-rule:evenodd;stroke:#d6d6d6;stroke-width:10;stroke-linecap:butt;stroke-linejoin:miter;stroke-miterlimit:4;stroke-dasharray:none;stroke-dashoffset:8.04250717;stroke-opacity:1" id="path4449" d="m 574.44536,261.06396 83.26724,78.04238"/><rect style="fill:#00f;fill-opacity:0;fill-rule:evenodd;stroke:#d6d6d6;stroke-width:8;stroke-linecap:butt;stroke-linejoin:miter;stroke-miterlimit:0;stroke-dasharray:none;stroke-dashoffset:19.9438839;stroke-opacity:1" id="rect4458" width="84.816" height="80.384" x="573.796" y="259.945" rx=".459" ry=".455"/><path style="fill:#000;fill-opacity:1;fill-rule:evenodd;stroke:#000;stroke-width:.4515565px;stroke-linecap:butt;stroke-linejoin:miter;stroke-opacity:1" id="rect4474" d="m 181.91171,621.2312 c 5.39236,0 24.69043,1.8436 36.02397,2.11277 11.33353,0.26916 14.34329,-28.4052 19.73565,-28.4052 l 7.81038,42.19748 1.90399,-26.79397 1.09661,-15.43205 c 8.28846,2.05606 14.40679,28.92746 25.24142,28.34404 10.83462,-0.58343 30.97716,-1.99437 37.6046,-2.02307 0.24599,0 0.44402,0.17693 0.44402,0.3967 l 0,40.90454 c 0,0.21977 -0.19803,0.3967 -0.44402,0.3967 l -48.44954,-0.80862 -8.02522,24.0813 -8.72203,-37.36803 -2.46585,36.8988 c 0,0 -3.6367,-21.52105 -11.45985,-21.44449 -7.82316,0.0766 -44.90177,-1.35896 -50.29413,-1.35896 -0.12299,0 -0.234,-0.0442 -0.31426,-0.11594 -0.0803,-0.0717 -0.12977,-0.17088 -0.12977,-0.28076 l 0,-20.45227 0,-20.45227 c 0,-0.21977 0.19804,-0.3967 0.44403,-0.3967 z" transform="matrix(0.72901945,-0.68449298,0.68167881,0.73165156,0,0)"/></g></svg>