<svg xmlns="http://www.w3.org/2000/svg" xmlns:svg="http://www.w3.org/2000/svg" id="svg4464" width="167.775" height="64.054" version="1.1" viewBox="0 0 167.775 64.054"><metadata id="metadata4469"/><g id="layer1" transform="translate(62.915701,-1012.3283)"><path id="Fill-1_22_" d="m -3.8459528,1036.7283 49.9999998,0 c 6.8,0 14,4.8 14,13.6 0,14.8 2.8,15.2 10,16 2,0.4 8.4,0.8 12.8,1.2 l 5.2,0.4 c 4.4,0.4 6.4,-1.2 7.6,-6 4,-16 -2,-27.6 -17.6,-32 -18,-5.2 -37.2,-10 -57.2,-10 -19.5999998,0 -39.2,4.8 -57.199998,10 -15.6,4.4 -22,15.6 -17.6,32 1.2,4.8 3.2,6.4 7.6,6 1.2,0 2.8,-0.4 5.2,-0.4 4.8,-0.4 10.8,-0.8 12.8,-1.2 6.799998,-0.8 9.999998,-1.2 9.999998,-16 0,-8.8 7.6,-13.6 14.4000002,-13.6 m 93.1999998,39.6 c -0.8,0 -1.2,0 -2,0 l -5.2,-0.4 c -4.8,-0.4 -11.2,-1.2 -13.2,-1.2 -12.8,-1.6 -17.2,-7.6 -16.8,-24 0,-4.4 -4,-5.6 -6,-5.6 l -49.9999998,0 c -2.4,0 -6,1.2 -6,5.6 0,16.4 -4.0000002,22.4 -16.7999982,24 -2.4,0.4 -8.4,0.8 -13.2,1.2 l -5.2,0.4 c -6,0.4 -13.6,-1.2 -16.4,-12 -5.2,-20.4 3.6,-36 23.2,-41.6 18.399998,-5.2 38.39999822,-10.4 59.199998,-10.4 20.8,0 40.8,5.2 59.2,10.4 20.000003,5.6 28.400003,21.2 23.200003,41.6 -2.4,9.6 -8.800003,12 -14.000003,12" class="st19" style="fill:#d40000"/></g></svg>