<svg xmlns="http://www.w3.org/2000/svg" xmlns:svg="http://www.w3.org/2000/svg" id="svg22109" width="69.511" height="72.248" version="1.1" viewBox="0 0 69.511 72.248"><metadata id="metadata22114"/><g id="layer1" transform="translate(-321.27127,-572.94044)"><g id="g22847" transform="matrix(4,0,0,4,-1064.6565,-1827.3561)"><path style="fill:#d7d7d7;fill-opacity:1;stroke:none;stroke-opacity:1" id="Fill-6_5_" d="m 358.77082,618.13402 0,-0.99969 -3.13348,0 0,-1.99939 c 3.13348,-0.29991 5.22246,-2.59921 5.22246,-5.49832 l 0,-1.49954 -1.04451,-1.5e-4 0,1.49954 c 0,2.49923 -2.08899,4.49862 -4.67752,4.49852 -2.58854,-9e-5 -4.73092,-1.99948 -4.73092,-4.49871 l 0,-1.49954 -1.04463,1.9e-4 0,1.49954 c 0,2.89911 2.08898,5.19841 5.22245,5.49832 l 0,1.99939 -3.13347,0 0,0.99969 c 1.21672,10e-4 2.4333,0.008 3.6496,-0.008"/><rect id="rect22679" width="5.977" height="9.574" x="352.126" y="602.648" rx="2.989" ry="2.789" style="fill:#000;fill-rule:evenodd;stroke:#d6d6d6;stroke-width:1.10570192;stroke-linecap:butt;stroke-linejoin:miter;stroke-miterlimit:4;stroke-dasharray:none;stroke-opacity:1;fill-opacity:0"/><rect id="rect22826" width="18.146" height="2.192" x="-165.582" y="691.404" rx="1.012" ry=".859" transform="matrix(0.75615306,-0.6543948,0.6829616,0.73045428,0,0)" style="fill:#d40000;fill-opacity:1;fill-rule:evenodd;stroke:#000;stroke-width:.51111245;stroke-linecap:butt;stroke-linejoin:miter;stroke-miterlimit:4;stroke-dasharray:none;stroke-opacity:1"/></g></g></svg>